# xmcd CD database file
#
# Track frame offsets:
#	150
#	18825
#	39498
#	63120
#	92588
#	118390
#	135165
#	145543
#	177160
#	200053
#	224080
#	227935
#	250165
#	270525
#	278493
#
# Disc length: 4078 seconds
#
# Revision: 4
# Processed by: cddbd v1.5.2PL0 Copyright (c) Steve Scherf et al.
# Submitted via: CDex 1.70beta3
#
DISCID=d30fec0f
DTITLE=FAKE？ - THE ART OF LOSING TOUCH
DYEAR=2004
DGENRE=Rock
TTITLE0=ON MY TIDE
TTITLE1=CLEAN
TTITLE2=PRAISE
TTITLE3=ESCAPE FROM THE AUDIO MESS
TTITLE4=ENDLESS
TTITLE5=CANDY
TTITLE6=STITCH FREQUENCY
TTITLE7=REDEMPTION
TTITLE8=NERVOUS TO SLEEP
TTITLE9=PRISTINE
TTITLE10=MAINLINE
TTITLE11=DRIP
TTITLE12=IN VERTIGO
TTITLE13=DIGITAL BREEZE
TTITLE14=BIT OF LIFE
EXTD=YEAR: 2004
EXTT0=
EXTT1=
EXTT2=
EXTT3=
EXTT4=
EXTT5=
EXTT6=
EXTT7=
EXTT8=
EXTT9=
EXTT10=
EXTT11=
EXTT12=
EXTT13=
EXTT14=
PLAYORDER=
